<?xml version="1.0" encoding="UTF-8"?>
<svg width="250px" height="51px" viewBox="0 0 250 51" version="1.1" xmlns="http://www.w3.org/2000/svg" xmlns:xlink="http://www.w3.org/1999/xlink">
    <!-- Generator: Sketch 43.2 (39069) - http://www.bohemiancoding.com/sketch -->
    <title>logo</title>
    <desc>Created with Sketch.</desc>
    <defs></defs>
    <g id="Page-1" stroke="none" stroke-width="1" fill="none" fill-rule="evenodd">
        <g id="logo-and-icon-v2" fill-rule="nonzero">
            <g id="text3363" transform="translate(37.201992, 0.125550)">
                <polygon id="path3417" fill="#333333" points="21.9093592 23.6277841 24.2664892 9.83100818 31.2513777 9.83100818 25.7369914 33.2293032 19.5738555 33.2293032 15.7029725 19.3460258 11.8104651 33.2293032 5.64732927 33.2293032 0.132942991 9.83100818 7.11783149 9.83100818 9.43171074 23.9521599 13.151219 9.83100818 18.2331036 9.83100818 21.9093592 23.6277841"></polygon>
                <path d="M44.6090225,33.6618049 C41.0192651,33.6618049 38.1143014,32.5949693 35.8941311,30.4612979 C33.6739595,28.3132103 32.5638738,25.5235799 32.5638738,22.0924067 L32.5638738,21.4869059 C32.5638738,19.093734 33.0035829,16.9816883 33.8830013,15.150769 C34.7768359,13.3198484 36.0743383,11.9070119 37.7755087,10.9122595 C39.476679,9.90309081 41.4950163,9.39850648 43.8305206,9.39850648 C47.1175272,9.39850648 49.7125321,10.4220921 51.6155354,12.4692632 C53.5185386,14.5020168 54.4700402,17.3421054 54.4700402,20.9895291 L54.4700402,23.8224096 L39.981264,23.8224096 C40.2407633,25.134329 40.8102221,26.1651227 41.6896404,26.9147907 C42.5690601,27.6644587 43.7079791,28.0392927 45.1063973,28.0392927 C47.4130691,28.0392927 49.2151559,27.2319583 50.5126577,25.6172895 L53.842915,29.5530457 C52.9346629,30.8072987 51.6443685,31.8092593 49.9720321,32.5589273 C48.3141118,33.294179 46.526442,33.6618049 44.6090225,33.6618049 L44.6090225,33.6618049 Z M43.7872698,15.0210187 C41.6535998,15.0210187 40.3849312,16.4338545 39.981264,19.2595262 L47.333777,19.2595262 L47.333777,18.6972762 C47.3626109,17.5295234 47.0670689,16.62848 46.4471512,15.994146 C45.8272335,15.3453945 44.9406064,15.0210187 43.7872698,15.0210187 Z" id="path3419" fill="#333333"></path>
                <path d="M78.4672047,21.7247822 C78.4672047,25.5596225 77.6742866,28.5078364 76.0884503,30.5694238 C74.502614,32.6310112 72.2680269,33.6618049 69.3846888,33.6618049 C67.0059344,33.6618049 65.0885135,32.7175114 63.6324263,30.8289244 L63.3296769,33.2293032 L56.7989144,33.2293032 L56.7989144,0.013239185 L64.0865524,0.013239185 L64.0865524,11.7123877 C65.4417218,10.1698002 67.1933504,9.39850648 69.341438,9.39850648 C72.2536099,9.39850648 74.502614,10.4437171 76.0884503,12.5341384 C77.6742866,14.6245596 78.4672047,17.5655654 78.4672047,21.3571556 L78.4672047,21.7247822 L78.4672047,21.7247822 Z M71.1579424,21.2706561 C71.1579424,19.0216507 70.8551917,17.4213975 70.2496902,16.4698965 C69.658605,15.503978 68.7431447,15.0210187 67.5033093,15.0210187 C65.8598066,15.0210187 64.7208877,15.6481445 64.0865524,16.9023962 L64.0865524,26.201164 C64.7064701,27.4410007 65.859806,28.0609191 67.54656,28.0609191 C69.2621466,28.0609191 70.3506067,27.2247509 70.8119402,25.5524144 C71.0426083,24.7306624 71.1579424,23.3034096 71.1579424,21.2706561 L71.1579424,21.2706561 Z" id="path3421" fill="#333333"></path>
                <path d="M92.019475,33.6618049 C88.6892183,33.6618049 85.9860881,32.6165943 83.9100844,30.5261731 C81.848497,28.4213355 80.8177033,25.624497 80.8177033,22.1356575 L80.8177033,21.4869059 C80.8177033,19.1514016 81.2646206,17.0681892 82.1584552,15.2372685 C83.0667074,13.3919316 84.3353767,11.9574707 85.964463,10.9338858 C87.5935494,9.9102996 89.4100531,9.39850648 91.4139742,9.39850648 C94.600063,9.39850648 97.0581094,10.4148839 98.7881136,12.4476388 C100.532533,14.4803924 101.404742,17.356523 101.404742,21.0760306 L101.404742,23.1952844 L86.1158397,23.1952844 C86.2744226,25.1271215 86.9159653,26.6552907 88.040468,27.7797921 C89.179387,28.9042948 90.6066398,29.4665462 92.3222263,29.4665462 C94.7298133,29.4665462 96.6904836,28.4934195 98.2042372,26.5471661 L101.037118,29.2502963 C100.100033,30.6487159 98.8457806,31.737176 97.2743606,32.5156765 C95.7173569,33.2797621 93.9657283,33.6618049 92.019475,33.6618049 L92.019475,33.6618049 Z M91.3923498,13.6153896 C89.9506801,13.6153896 88.7829273,14.119974 87.8890914,15.1291426 C87.009673,16.1383113 86.4474223,17.543939 86.2023393,19.3460258 L96.2147337,19.3460258 L96.2147337,18.9567768 C96.0993997,17.1979388 95.6308567,15.8716025 94.8091047,14.9777679 C93.987354,14.0695157 92.8484357,13.6153896 91.3923498,13.6153896 L91.3923498,13.6153896 Z" id="path3423" fill="#FFA500"></path>
                <polygon id="path3425" fill="#FFA500" points="113.313509 17.5295234 117.768269 9.83100818 123.607029 9.83100818 116.449141 21.3571556 123.844905 33.2293032 118.049394 33.2293032 113.378384 25.2280386 108.729001 33.2293032 102.890239 33.2293032 110.286003 21.3571556 103.14974 9.83100818 108.945251 9.83100818"></polygon>
                <path d="M135.818547,29.4665462 C137.130465,29.4665462 138.218925,29.084504 139.083927,28.3204197 C139.948929,27.5563341 140.410264,26.6120406 140.46793,25.4875392 L145.420064,25.4875392 C145.362398,26.9436252 144.908272,28.3060028 144.057688,29.5746721 C143.207102,30.8289238 142.053766,31.8236755 140.59768,32.5589273 C139.141594,33.294179 137.570175,33.6618049 135.883422,33.6618049 C132.610832,33.6618049 130.015826,32.6021774 128.098405,30.4829223 C126.180986,28.3636685 125.222276,25.4370797 125.222276,21.7031558 L125.222276,21.1625302 C125.222276,17.6016067 126.173778,14.7543093 128.076781,12.6206379 C129.979784,10.4725503 132.574789,9.39850648 135.861796,9.39850648 C138.644219,9.39850648 140.90764,10.2130503 142.652059,11.842138 C144.410896,13.4568068 145.333564,15.5832687 145.420064,18.2215237 L140.46793,18.2215237 C140.410264,16.8807718 139.948929,15.7778948 139.083927,14.9128928 C138.233343,14.0478907 137.144883,13.6153896 135.818547,13.6153896 C134.117377,13.6153896 132.805457,14.235308 131.882789,15.4751448 C130.96012,16.7005639 130.491578,18.5675259 130.477162,21.0760306 L130.477162,21.9194057 C130.477162,24.4567442 130.931287,26.35254 131.839538,27.606793 C132.762207,28.8466284 134.088543,29.4665462 135.818547,29.4665462 L135.818547,29.4665462 Z" id="path3427" fill="#FFA500"></path>
                <path d="M159.102093,33.6618049 C155.771825,33.6618049 153.068691,32.6165943 150.992688,30.5261731 C148.931108,28.4213355 147.900317,25.624497 147.900317,22.1356575 L147.900317,21.4869059 C147.900317,19.1514016 148.347233,17.0681892 149.241065,15.2372685 C150.149319,13.3919316 151.417985,11.9574707 153.047065,10.9338858 C154.676158,9.9102996 156.492665,9.39850648 158.496586,9.39850648 C161.682677,9.39850648 164.140725,10.4148839 165.870729,12.4476388 C167.615142,14.4803924 168.487348,17.356523 168.487348,21.0760306 L168.487348,23.1952844 L153.198452,23.1952844 C153.357036,25.1271215 153.998576,26.6552907 155.123074,27.7797921 C156.261993,28.9042948 157.689244,29.4665462 159.404826,29.4665462 C161.812419,29.4665462 163.773095,28.4934195 165.286855,26.5471661 L168.119718,29.2502963 C167.182634,30.6487159 165.928383,31.737176 164.356963,32.5156765 C162.799964,33.2797621 161.048341,33.6618049 159.102093,33.6618049 L159.102093,33.6618049 Z M158.474954,13.6153896 C157.033288,13.6153896 155.865539,14.119974 154.971707,15.1291426 C154.092284,16.1383113 153.530028,17.543939 153.284941,19.3460258 L163.297336,19.3460258 L163.297336,18.9567768 C163.182003,17.1979388 162.713461,15.8716025 161.891711,14.9777679 C161.06996,14.0695157 159.931041,13.6153896 158.474954,13.6153896 L158.474954,13.6153896 Z" id="path3429" fill="#FFA500"></path>
                <path d="M185.110379,26.8715419 C185.110379,25.9344559 184.721129,25.2208292 183.94263,24.7306618 C183.178539,24.2404943 181.902662,23.8079933 180.114998,23.4331586 C178.327321,23.0583253 176.835193,22.5825748 175.638614,22.0059072 C173.014778,20.7372379 171.70286,18.8991091 171.70286,16.4915209 C171.70286,14.4731836 172.553441,12.7864302 174.254602,11.4312607 C175.955776,10.0760912 178.118281,9.39850648 180.742117,9.39850648 C183.538959,9.39850648 185.795171,10.0905081 187.510754,11.4745115 C189.240758,12.8585135 190.10576,14.6533921 190.10576,16.8591474 L184.850871,16.8591474 C184.850871,15.8499788 184.476036,15.0138105 183.726367,14.3506427 C182.97671,13.6730573 181.981961,13.3342646 180.742117,13.3342646 C179.588777,13.3342646 178.644483,13.6009734 177.909235,14.1343909 C177.188409,14.6678084 176.827995,15.3814351 176.827995,16.275271 C176.827995,17.0826054 177.166783,17.7097313 177.844358,18.1566486 C178.521946,18.6035672 179.891537,19.0576933 181.953131,19.5190269 C184.014712,19.9659442 185.629376,20.5065705 186.797125,21.1409058 C187.979296,21.7608235 188.851508,22.5104915 189.413764,23.3899098 C189.990427,24.2693282 190.278759,25.3361632 190.278759,26.5904149 C190.278759,28.6952524 189.406553,30.4036309 187.66214,31.7155503 C185.917715,33.0130534 183.632666,33.6618049 180.806994,33.6618049 C178.889576,33.6618049 177.181198,33.3158041 175.681859,32.6238024 C174.18252,31.9318008 173.014772,30.9802991 172.178612,29.7692975 C171.34244,28.5582946 170.924354,27.2535834 170.924354,25.8551638 L176.027857,25.8551638 C176.099939,27.0949992 176.56848,28.0537097 177.433482,28.7312951 C178.298484,29.3944629 179.444614,29.7260468 180.871872,29.7260468 C182.255877,29.7260468 183.308294,29.4665462 184.02912,28.9475449 C184.749959,28.4141274 185.110379,27.7221264 185.110379,26.8715419 L185.110379,26.8715419 Z" id="path3431" fill="#FFA500"></path>
                <path d="M207.44242,26.8715419 C207.44242,25.9344559 207.05317,25.2208292 206.274671,24.7306618 C205.51058,24.2404943 204.234703,23.8079933 202.447039,23.4331586 C200.659362,23.0583253 199.167234,22.5825748 197.970655,22.0059072 C195.346806,20.7372379 194.034881,18.8991091 194.034881,16.4915209 C194.034881,14.4731836 194.885468,12.7864302 196.586642,11.4312607 C198.287817,10.0760912 200.450322,9.39850648 203.074158,9.39850648 C205.871,9.39850648 208.127212,10.0905081 209.842795,11.4745115 C211.572799,12.8585135 212.437801,14.6533921 212.437801,16.8591474 L207.182911,16.8591474 C207.182911,15.8499788 206.808077,15.0138105 206.058407,14.3506427 C205.308738,13.6730573 204.313988,13.3342646 203.074158,13.3342646 C201.920818,13.3342646 200.976523,13.6009734 200.241276,14.1343909 C199.520436,14.6678084 199.160016,15.3814351 199.160016,16.275271 C199.160016,17.0826054 199.49881,17.7097313 200.176398,18.1566486 C200.853986,18.6035672 202.223571,19.0576933 204.285152,19.5190269 C206.346746,19.9659442 207.961417,20.5065705 209.129166,21.1409058 C210.311336,21.7608235 211.183549,22.5104915 211.745804,23.3899098 C212.322468,24.2693282 212.6108,25.3361632 212.6108,26.5904149 C212.6108,28.6952524 211.738587,30.4036309 209.994161,31.7155503 C208.249749,33.0130534 205.964707,33.6618049 203.139035,33.6618049 C201.221617,33.6618049 199.513238,33.3158041 198.0139,32.6238024 C196.514561,31.9318008 195.346806,30.9802991 194.510633,29.7692975 C193.674474,28.5582946 193.256395,27.2535834 193.256395,25.8551638 L198.359898,25.8551638 C198.431979,27.0949992 198.900521,28.0537097 199.765523,28.7312951 C200.630525,29.3944629 201.776655,29.7260468 203.203912,29.7260468 C204.587905,29.7260468 205.640321,29.4665462 206.361161,28.9475449 C207.082,28.4141274 207.44242,27.7221264 207.44242,26.8715419 L207.44242,26.8715419 Z" id="path3433" fill="#FFA500"></path>
            </g>
            <g id="text3369" transform="translate(175.774490, 40.673752)" fill="#808080">
                <path d="M4.05074182,4.89861261 C4.05074182,5.7091515 3.87613982,6.35309698 3.52693581,6.83044906 C3.1777318,7.30780244 2.70198132,7.54647914 2.09968435,7.54647914 C1.70883117,7.54647914 1.35962651,7.4663866 1.05207036,7.30620151 C0.744514209,7.14281194 0.502634339,6.91694992 0.326430746,6.62861546 L0.326430746,7.45036809 L0.066930123,7.45036809 L0.066930123,0.0690205206 L0.326430746,0.0690205206 L0.326430746,3.1974423 C0.509042005,2.85464596 0.749320287,2.59514533 1.04726559,2.41894043 C1.34841408,2.24273683 1.6960165,2.15463504 2.09007285,2.15463504 C2.69877748,2.15463504 3.1777318,2.38850565 3.52693581,2.85624689 C3.87613982,3.32078494 4.05074182,3.97434192 4.05074182,4.81691783 L4.05074182,4.89861261 Z M3.78163167,4.79769483 C3.78163167,4.05123129 3.63265902,3.46815666 3.33471371,3.04847096 C3.03997289,2.62558076 2.6266942,2.41413566 2.09487762,2.41413566 C1.6591734,2.41413566 1.28914481,2.52626522 0.984791835,2.75052434 C0.683643353,2.97478477 0.464189656,3.30797092 0.326430746,3.75008281 L0.326430746,6.13364197 C0.464189656,6.50206898 0.683643353,6.78719961 0.984791835,6.98903386 C1.28914481,7.18766363 1.66237723,7.28697851 2.10448912,7.28697851 C2.63950887,7.28697851 3.05278757,7.07393183 3.34432521,6.64783845 C3.63586285,6.22174508 3.78163167,5.60503054 3.78163167,4.79769483 L3.78163167,4.79769483 Z" id="path3436"></path>
                <path d="M8.81786213,7.45036809 C8.75378809,7.22931215 8.72175108,6.9121445 8.72175108,6.49886515 C8.51671364,6.83205196 8.23638909,7.08995099 7.88077742,7.27256225 C7.52516574,7.45517351 7.12310013,7.54647914 6.67458058,7.54647914 C6.19402402,7.54647914 5.80637533,7.41672883 5.51163451,7.1572282 C5.22009687,6.8945244 5.07432805,6.55332899 5.07432805,6.13364197 C5.07432805,5.6562899 5.28897633,5.27504887 5.71827288,4.9899189 C6.15077392,4.70158444 6.72423835,4.55421337 7.43866619,4.5478057 L8.72175108,4.5478057 L8.72175108,3.78852683 C8.72175108,3.35282262 8.58399151,3.01483104 8.30847238,2.7745521 C8.03615774,2.53427447 7.64530521,2.41413566 7.13591481,2.41413566 C6.66176591,2.41413566 6.26610796,2.53587672 5.94894097,2.77935883 C5.63177398,3.02284095 5.47319049,3.32398943 5.47319049,3.68280428 L5.21368986,3.67319869 C5.21368986,3.2503098 5.39950495,2.8914943 5.77113514,2.59675217 C6.14276532,2.30201135 6.59769188,2.15464094 7.13591481,2.15464094 C7.69656391,2.15464094 8.14187963,2.29560434 8.47186195,2.57753114 C8.80184821,2.85625345 8.97164414,3.2503098 8.98124973,3.75970021 L8.98124973,6.24417716 C8.98124973,6.81443711 9.02610208,7.2020858 9.11580678,7.40712323 L9.11580678,7.45037399 L8.81786213,7.45037399 L8.81786213,7.45036809 Z M6.67458058,7.29178328 C7.16154481,7.29178328 7.57962893,7.18285755 7.92883294,6.9650061 C8.28124144,6.74715334 8.54554748,6.44119878 8.72175108,6.04714242 L8.72175108,4.81211306 L7.52036098,4.81211306 C6.77710061,4.81211306 6.20844225,4.95948347 5.8143859,5.25422429 C5.49401442,5.49450323 5.33382868,5.79405012 5.33382868,6.15286497 C5.33382868,6.47003196 5.46037515,6.73914343 5.71346811,6.96019937 C5.96656107,7.18125531 6.28693189,7.29178328 6.67458058,7.29178328 L6.67458058,7.29178328 Z" id="path3438"></path>
                <polygon id="path3440" points="11.6915821 4.63911199 11.6819372 4.64871758 10.927465 5.29746914 10.927465 7.45036218 10.6679565 7.45036218 10.6679565 0.0690146156 10.927465 0.0690146156 10.927465 5.01394076 11.5377745 4.43727249 13.9021087 2.25074018 14.2721406 2.25074018 11.8837727 4.46610501 14.4211061 7.45036218 14.0847134 7.45036218 11.6915428 4.63910608"></polygon>
                <path d="M17.0930555,7.54647914 C16.6733619,7.54647914 16.2873141,7.43434892 15.9349122,7.21008849 C15.585699,6.9826262 15.3117821,6.67186687 15.1131615,6.27781052 C14.9145278,5.88375416 14.815211,5.4464477 14.815211,4.96589114 L14.815211,4.7496393 C14.815211,4.26908274 14.9113194,3.8285731 15.1035362,3.42811039 C15.2957662,3.02764637 15.5600709,2.71528414 15.8964504,2.49102371 C16.232843,2.2667646 16.5996731,2.15463504 16.9969405,2.15463504 C17.576806,2.15463504 18.050951,2.36127406 18.4193754,2.7745521 C18.7877997,3.18783145 18.9720119,3.73086046 18.9720119,4.40363913 L18.9720119,4.67755602 L15.0746998,4.67755602 L15.0746998,4.9610844 C15.0746998,5.3839746 15.1628035,5.77642937 15.3390111,6.13844871 C15.5184205,6.49726356 15.7635074,6.7791897 16.074272,6.98422713 C16.3882253,7.18926456 16.7278198,7.29178328 17.0930555,7.29178328 C17.4422555,7.29178328 17.7385986,7.23411691 17.9820846,7.11878418 C18.2287594,7.00024695 18.4466109,6.81923728 18.635639,6.57575517 L18.8182437,6.70550548 C18.430595,7.26615458 17.8555323,7.54647914 17.0930555,7.54647914 L17.0930555,7.54647914 Z M16.9969405,2.41413566 C16.4907441,2.41413566 16.0614449,2.60315459 15.7090429,2.98119243 C15.356641,3.35602579 15.1500026,3.83498011 15.0891278,4.41805539 L18.7125231,4.41805539 L18.7125231,4.3555836 C18.7125231,4.00317511 18.6372334,3.67639662 18.4866539,3.37524813 C18.3392894,3.07089647 18.1342519,2.83542361 17.8715416,2.66882955 C17.6120462,2.49903363 17.3205125,2.41413566 16.9969405,2.41413566 L16.9969405,2.41413566 Z" id="path3442"></path>
                <path d="M19.9427477,4.79769483 C19.9427477,3.96793426 20.1173477,3.32078494 20.4665478,2.85624689 C20.815761,2.38850565 21.2947153,2.15463504 21.9034108,2.15463504 C22.2942613,2.15463504 22.6386652,2.24273683 22.9366223,2.41894043 C23.2377681,2.59514533 23.4812476,2.85784979 23.6670607,3.2070538 L23.6670607,0.0690205206 L23.9265496,0.0690205206 L23.9265496,7.45036809 L23.6670607,7.45036809 L23.6670607,6.61900396 C23.4908532,6.91374609 23.2489747,7.14281194 22.9414251,7.30620151 C22.6338624,7.4663866 22.2846557,7.54647914 21.8938052,7.54647914 C21.2915135,7.54647914 20.815761,7.30780244 20.4665478,6.83044906 C20.1173477,6.35309698 19.9427477,5.69793841 19.9427477,4.86497335 L19.9427477,4.79769483 L19.9427477,4.79769483 Z M20.2118618,4.89861261 C20.2118618,5.63546531 20.3576319,6.21854059 20.6491722,6.64783845 C20.9406993,7.07393183 21.3539761,7.28697851 21.8890024,7.28697851 C22.3183016,7.28697851 22.685125,7.19246905 22.9894727,7.00345013 C23.2938204,6.81122803 23.5196831,6.53090347 23.6670607,6.16247647 L23.6670607,3.72605504 C23.3691168,2.85144212 22.7796325,2.41413566 21.898608,2.41413566 C21.3667966,2.41413566 20.951919,2.62397852 20.653975,3.04366422 C20.3592329,3.46334993 20.2118618,4.08166606 20.2118618,4.89861261 L20.2118618,4.89861261 Z" id="path3444"></path>
                <path d="M31.2886859,7.45036809 C31.2246093,7.22931215 31.192571,6.9121445 31.192571,6.49886515 C30.9875335,6.83205196 30.7072063,7.08995099 30.3515894,7.27256225 C29.9959856,7.45517351 29.593922,7.54647914 29.1453985,7.54647914 C28.6648432,7.54647914 28.2771946,7.41672883 27.9824524,7.1572282 C27.6909122,6.8945244 27.545142,6.55332899 27.545142,6.13364197 C27.545142,5.6562899 27.7597916,5.27504887 28.1890908,4.9899189 C28.6215918,4.70158444 29.1950602,4.55421337 29.9094959,4.5478057 L31.192571,4.5478057 L31.192571,3.78852683 C31.192571,3.35282262 31.054812,3.01483104 30.7792942,2.7745521 C30.5069783,2.53427447 30.1161277,2.41413566 29.6067426,2.41413566 C29.132591,2.41413566 28.7369311,2.53587672 28.4197628,2.77935883 C28.1025945,3.02284095 27.9440104,3.32398943 27.9440104,3.68280428 L27.6845019,3.67319869 C27.6845019,3.2503098 27.8703216,2.8914943 28.2419609,2.59675217 C28.6135872,2.30201135 29.0685144,2.15464094 29.6067426,2.15464094 C30.1673838,2.15464094 30.6126989,2.29560434 30.9426877,2.57753114 C31.2726635,2.85625345 31.4424607,3.2503098 31.4520795,3.75970021 L31.4520795,6.24417716 C31.4520795,6.81443711 31.4969318,7.2020858 31.5866365,7.40712323 L31.5866365,7.45037399 L31.2886859,7.45037399 L31.2886859,7.45036809 Z M29.1453985,7.29178328 C29.6323706,7.29178328 30.0504567,7.18285755 30.3996568,6.9650061 C30.7520587,6.74715334 31.0163634,6.44119878 31.192571,6.04714242 L31.192571,4.81211306 L29.9911828,4.81211306 C29.2479172,4.81211306 28.6792582,4.95948347 28.2852058,5.25422429 C27.9648356,5.49450323 27.8046505,5.79405012 27.8046505,6.15286497 C27.8046505,6.47003196 27.9311963,6.73914343 28.184288,6.96019937 C28.4373796,7.18125531 28.7577498,7.29178328 29.1453985,7.29178328 L29.1453985,7.29178328 Z" id="path3446"></path>
                <path d="M33.7202987,0.847522391 L33.7202987,2.25074609 L34.9024756,2.25074609 L34.9024756,2.51505148 L33.7202987,2.51505148 L33.7202987,6.20572526 C33.7202987,6.57415227 33.779566,6.84646822 33.8981006,7.02267313 C34.0198502,7.19887672 34.2216857,7.28697851 34.5036073,7.28697851 C34.644568,7.28697851 34.8159662,7.27256159 35.0178018,7.24372775 L35.0610466,7.48881211 C34.9553326,7.5272568 34.7743223,7.54647914 34.5180157,7.54647914 C34.1399857,7.54647914 33.8692772,7.44235818 33.7058903,7.23411626 C33.5424902,7.02267247 33.4591892,6.69108856 33.4559874,6.23936452 L33.4559874,2.51505148 L32.4948769,2.51505148 L32.4948769,2.25074609 L33.4559874,2.25074609 L33.4559874,0.847522391 L33.7202987,0.847522391 L33.7202987,0.847522391 Z" id="path3448"></path>
                <path d="M38.3576746,4.79769483 C38.3576746,3.96793426 38.5322746,3.32078494 38.8814747,2.85624689 C39.2306747,2.38850565 39.7096291,2.15463504 40.3183376,2.15463504 C40.7091882,2.15463504 41.0535855,2.24273683 41.3515295,2.41894043 C41.6526884,2.59514533 41.8961745,2.85784979 42.0819876,3.2070538 L42.0819876,0.0690205206 L42.3414764,0.0690205206 L42.3414764,7.45036809 L42.0819876,7.45036809 L42.0819876,6.61900396 C41.9057801,6.91374609 41.6639015,7.14281194 41.3563519,7.30620151 C41.0487892,7.4663866 40.6995826,7.54647914 40.308732,7.54647914 C39.7064272,7.54647914 39.2306747,7.30780244 38.8814747,6.83044906 C38.5322746,6.35309698 38.3576746,5.69793841 38.3576746,4.86497335 L38.3576746,4.79769483 L38.3576746,4.79769483 Z M38.6267887,4.89861261 C38.6267887,5.63546531 38.7725522,6.21854059 39.0640794,6.64783845 C39.3556196,7.07393183 39.7689029,7.28697851 40.3039292,7.28697851 C40.7332284,7.28697851 41.1000519,7.19246905 41.4043996,7.00345013 C41.7087473,6.81122803 41.93461,6.53090347 42.0819876,6.16247647 L42.0819876,3.72605504 C41.7840436,2.85144212 41.1945594,2.41413566 40.3135348,2.41413566 C39.7817235,2.41413566 39.3668458,2.62397852 39.0689018,3.04366422 C38.7741597,3.46334993 38.6267887,4.08166606 38.6267887,4.89861261 L38.6267887,4.89861261 Z" id="path3450"></path>
                <path d="M43.5861291,4.7496393 C43.5861291,4.25306423 43.6806366,3.80774852 43.8696516,3.41369216 C44.0618815,3.01643263 44.3309956,2.70727489 44.6769938,2.48621895 C45.0261939,2.26516301 45.4202463,2.15463504 45.8591511,2.15463504 C46.294854,2.15463504 46.6857111,2.26195918 47.0317224,2.47660745 C47.3777207,2.69125573 47.6468282,2.99560804 47.839045,3.3896644 C48.0344769,3.78372075 48.1337937,4.22743488 48.1369956,4.72080678 L48.1369956,4.9514729 C48.1369956,5.45125247 48.0424881,5.89817042 47.8534731,6.29222678 C47.664445,6.68628314 47.3953309,6.99383929 47.0461308,7.21489523 C46.7001326,7.43595117 46.3076811,7.54647914 45.8687764,7.54647914 C45.4298585,7.54647914 45.0357995,7.43755276 44.6865994,7.21969999 C44.3406012,7.00184854 44.0714871,6.69749622 43.8792572,6.30664304 C43.6870403,5.91258669 43.589331,5.47047481 43.5861291,4.9803074 L43.5861291,4.7496393 Z M43.8456179,4.9514729 C43.8456179,5.38397394 43.9305198,5.78123413 44.1003236,6.14325347 C44.2733161,6.50206963 44.5119928,6.78239419 44.8163537,6.98422713 C45.1239033,7.18606139 45.4747108,7.28697851 45.8687764,7.28697851 C46.4614625,7.28697851 46.9436187,7.06432033 47.3152449,6.61900396 C47.690073,6.1736889 47.8774871,5.60022512 47.8774871,4.89861261 L47.8774871,4.7496393 C47.8774871,4.32354593 47.7909908,3.92948957 47.6179983,3.56747023 C47.4449926,3.20545221 47.204715,2.92352607 46.8971654,2.72169181 C46.5928046,2.51665438 46.2467998,2.41413566 45.8591511,2.41413566 C45.266465,2.41413566 44.7827079,2.63999702 44.4078798,3.09171975 C44.0330385,3.54344378 43.8456179,4.11210214 43.8456179,4.79769483 L43.8456179,4.9514729 L43.8456179,4.9514729 Z" id="path3452"></path>
                <path d="M49.9631016,0.847522391 L49.9631016,2.25074609 L51.1452786,2.25074609 L51.1452786,2.51505148 L49.9631016,2.51505148 L49.9631016,6.20572526 C49.9631016,6.57415227 50.0223755,6.84646822 50.1409232,7.02267313 C50.2626597,7.19887672 50.4644887,7.28697851 50.7464102,7.28697851 C50.887371,7.28697851 51.0587692,7.27256159 51.2606047,7.24372775 L51.3038693,7.48881211 C51.1981421,7.5272568 51.0171318,7.54647914 50.7608383,7.54647914 C50.3827952,7.54647914 50.1120802,7.44235818 49.9486932,7.23411626 C49.7853063,7.02267247 49.7020119,6.69108856 49.69881,6.23936452 L49.69881,2.51505148 L48.7376995,2.51505148 L48.7376995,2.25074609 L49.69881,2.25074609 L49.69881,0.847522391 L49.9631016,0.847522391 L49.9631016,0.847522391 Z" id="path3454"></path>
                <path d="M56.4506172,4.89861261 C56.4506172,5.7091515 56.2760172,6.35309698 55.9268171,6.83044906 C55.577617,7.30780244 55.1018646,7.54647914 54.4995597,7.54647914 C54.1055073,7.54647914 53.7546997,7.4663866 53.447137,7.30620151 C53.1395874,7.14601512 52.8993098,6.92495852 52.7263042,6.64303172 L52.7263042,9.44948305 L52.4668153,9.44948305 L52.4668153,2.25074609 L52.7263042,2.25074609 L52.7263042,3.17822127 C52.9057135,2.84823895 53.1475921,2.59514533 53.4519398,2.41894043 C53.7563007,2.24273683 54.1023054,2.15463504 54.4899541,2.15463504 C55.0986627,2.15463504 55.577617,2.38850565 55.9268171,2.85624689 C56.2760172,3.32078494 56.4506172,3.97434192 56.4506172,4.81691783 L56.4506172,4.89861261 Z M56.1863059,4.79769483 C56.1863059,4.05123129 56.0373339,3.46815666 55.7393899,3.04847096 C55.4446478,2.62558076 55.0297701,2.41413566 54.4947569,2.41413566 C54.059054,2.41413566 53.6890287,2.52786747 53.384681,2.75533107 C53.0803201,2.97959019 52.8608612,3.30316485 52.7263042,3.72605504 L52.7263042,6.15766974 C52.8608612,6.5164859 53.0803201,6.79520886 53.384681,6.99383863 C53.6922306,7.18926522 54.0654578,7.28697851 54.5043625,7.28697851 C55.036187,7.28697851 55.4494703,7.07553342 55.7442124,6.65264322 C56.0389414,6.22975434 56.1863059,5.61143821 56.1863059,4.79769483 Z" id="path3456"></path>
                <path d="M61.3426791,7.45036809 L61.3426791,6.60939443 C61.1889109,6.89772758 60.9646557,7.12679277 60.6699136,7.29659001 C60.3751714,7.46318276 60.0019377,7.54647914 59.5502124,7.54647914 C58.9831543,7.54647914 58.5570635,7.38148798 58.2719401,7.05150565 C57.9900054,6.71832015 57.8458362,6.23455976 57.8394325,5.60022446 L57.8394325,2.25074609 L58.0989213,2.25074609 L58.0989213,5.60983596 C58.1053513,6.16087422 58.2302962,6.57895834 58.473756,6.86408832 C58.717242,7.14601512 59.072859,7.28697851 59.5406068,7.28697851 C60.0371713,7.28697851 60.4408359,7.17004288 60.7516005,6.93617161 C61.0623651,6.70230165 61.2593913,6.35950465 61.3426791,5.90778061 L61.3426791,2.25074609 L61.6069904,2.25074609 L61.6069904,7.45036809 L61.3426791,7.45036809 Z" id="path3458"></path>
                <path d="M68.4645379,6.17689273 C68.4645379,5.54576193 67.9263162,5.11646472 66.849873,4.88900111 C66.2027158,4.7512422 65.7525914,4.57503796 65.4994998,4.36038837 C65.2464081,4.14253692 65.1198623,3.84459227 65.1198623,3.46655442 C65.1198623,3.08531339 65.2800474,2.77134958 65.6004175,2.52466298 C65.9239896,2.27797768 66.3436766,2.15463504 66.8594786,2.15463504 C67.4201198,2.15463504 67.8702377,2.28919077 68.2098322,2.55830224 C68.5494266,2.82421053 68.7192239,3.18462828 68.7192239,3.63955549 L68.4549323,3.63955549 C68.4549323,3.29035017 68.3075612,2.99881253 68.0128191,2.76494257 C67.7180769,2.5310713 67.3336301,2.41413566 66.8594786,2.41413566 C66.4045514,2.41413566 66.0441317,2.51345055 65.7782194,2.71208031 C65.5123203,2.91071008 65.3793708,3.15899761 65.3793708,3.45694292 C65.3793708,3.69081419 65.4290259,3.8750277 65.5283362,4.00958343 C65.6276465,4.14093467 65.7894325,4.26107349 66.0136943,4.36999987 C66.237956,4.47572307 66.5647365,4.57824179 66.9940356,4.67755602 C67.4233348,4.77687156 67.7629293,4.89380719 68.0128191,5.02836293 C68.2627089,5.16291866 68.4437126,5.3231044 68.5558304,5.50892015 C68.6679612,5.6915314 68.7240267,5.91579052 68.7240267,6.1816975 C68.7240267,6.59177236 68.5558369,6.92175469 68.2194574,7.17164447 C67.8830648,7.42153425 67.4425526,7.54647914 66.8979207,7.54647914 C66.3148401,7.54647914 65.843897,7.41512724 65.4850914,7.15242344 C65.1294744,6.88651515 64.951666,6.54531974 64.951666,6.12883721 L65.2111745,6.12883721 C65.2368025,6.49405972 65.3969876,6.7791897 65.6917297,6.98422713 C65.9896737,7.18606139 66.3917374,7.28697851 66.8979207,7.28697851 C67.3624535,7.28697851 67.7388891,7.17965438 68.0272275,6.9650061 C68.3187677,6.74715334 68.4645379,6.48444888 68.4645379,6.17689273 L68.4645379,6.17689273 Z" id="path3462"></path>
                <path d="M72.0302602,7.54647914 C71.6105797,7.54647914 71.224532,7.43434892 70.8721169,7.21008849 C70.5229169,6.9826262 70.249,6.67186687 70.0503663,6.27781052 C69.8517326,5.88375416 69.7524157,5.4464477 69.7524157,4.96589114 L69.7524157,4.7496393 C69.7524157,4.26908274 69.8485307,3.8285731 70.0407607,3.42811039 C70.2329775,3.02764637 70.4972823,2.71528414 70.8336749,2.49102371 C71.1700675,2.2667646 71.5368909,2.15463504 71.9341452,2.15463504 C72.5140239,2.15463504 72.9881754,2.36127406 73.3565998,2.7745521 C73.7250242,3.18783145 73.9092364,3.73086046 73.9092364,4.40363913 L73.9092364,4.67755602 L70.0119242,4.67755602 L70.0119242,4.9610844 C70.0119242,5.3839746 70.100028,5.77642937 70.2762355,6.13844871 C70.4556449,6.49726356 70.7007253,6.7791897 71.0114768,6.98422713 C71.3254432,7.18926456 71.6650377,7.29178328 72.0302602,7.29178328 C72.3794603,7.29178328 72.6758033,7.23411691 72.9192894,7.11878418 C73.1659773,7.00024695 73.3838288,6.81923728 73.5728437,6.57575517 L73.7554681,6.70550548 C73.3678194,7.26615458 72.7927501,7.54647914 72.0302602,7.54647914 L72.0302602,7.54647914 Z M71.9341452,2.41413566 C71.4279619,2.41413566 70.9986693,2.60315459 70.6462674,2.98119243 C70.2938523,3.35602579 70.0872074,3.83498011 70.0263326,4.41805539 L73.6497475,4.41805539 L73.6497475,4.3555836 C73.6497475,4.00317511 73.5744578,3.67639662 73.4238783,3.37524813 C73.2765007,3.07089647 73.0714632,2.83542361 72.808766,2.66882955 C72.5492706,2.49903363 72.2577304,2.41413566 71.9341452,2.41413566 Z" id="path3464"></path>
            </g>
            <g id="g3407" transform="translate(0.073842, 9.959946)">
                <g id="layer2" stroke="#000000" stroke-opacity="0" stroke-width="0.5" fill="#FFA500">
                    <circle id="path4738" cx="11.7325214" cy="11.7156734" r="11.7089359"></circle>
                </g>
                <g id="layer1-8" transform="translate(5.930281, 1.085081)" fill="#333333">
                    <g id="text4732" transform="translate(12.157077, 0.000000)">
                        <path d="M4.21895712,4.34482511 C4.33206834,4.42174086 4.38862395,4.51222979 4.38862395,4.6162919 C4.38862395,4.75654948 4.24384181,4.9963451 3.95427754,5.33567877 C3.18059721,6.23151894 2.41596576,6.67943902 1.66038317,6.67943902 C1.19888966,6.67943902 0.818836206,6.49619901 0.520222816,6.12971899 C0.221609427,5.76323896 0.0723027321,5.29495874 0.0723027321,4.72487832 C0.0723027321,3.69330488 0.46140505,2.65042017 1.23960969,1.59622419 C2.02233913,0.537503904 2.79601945,0.00814375893 3.56065066,0.00814375893 C4.11263285,0.00814375893 4.38862395,0.304494993 4.38862395,0.897197462 C4.38862395,1.56229088 4.06512611,2.21154896 3.41813043,2.8449717 C2.77565907,3.47839395 1.99066772,3.91952732 1.06315639,4.16837182 C1.15364556,5.25876327 1.58346791,5.80395899 2.35262343,5.80395899 C3.11273033,5.80395899 3.73484156,5.31758103 4.21895712,4.34482511 L4.21895712,4.34482511 Z M1.09030299,3.34039853 C1.22151195,3.38564262 1.34140988,3.40826467 1.4499968,3.40826467 C2.0110281,3.40826467 2.50193037,3.23633593 2.92270361,2.89247844 C3.34347733,2.54862047 3.5538642,2.14594472 3.5538642,1.68445121 C3.5538642,1.15509107 3.28465957,0.890410996 2.74625031,0.890410996 C2.35714774,0.890410996 2.0042409,1.12341991 1.68752977,1.58943773 C1.37534296,2.05093124 1.17626736,2.63458484 1.09030299,3.34039853 L1.09030299,3.34039853 Z" id="path4809"></path>
                    </g>
                    <g id="text4188" transform="translate(0.000000, 6.597438)">
                        <polygon id="path4806" points="8.20159474 5.21872621 9.08929115 0.0228530807 11.7198039 0.0228530807 9.64308307 8.8346634 7.32204283 8.8346634 5.86426625 3.60621376 4.3983459 8.8346634 2.07730567 8.8346634 0.000584874003 0.0228530807 2.63109759 0.0228530807 3.50250574 5.3408863 4.90327378 0.0228530807 6.81711495 0.0228530807 8.20159474 5.21872621"></polygon>
                    </g>
                </g>
            </g>
        </g>
    </g>
</svg>